<mxfile
  host="Electron"
  agent="Mozilla/5.0 (Macintosh; Intel Mac OS X 10_15_7) AppleWebKit/537.36 (KHTML, like Gecko) draw.io/25.0.2 Chrome/128.0.6613.186 Electron/32.2.5 Safari/537.36"
  version="25.0.2"
  >
  <diagram
    name="dinghy-top-level-folder-structure"
    >
    <mxGraphModel
      grid="1"
      gridSize="10"
      guides="1"
      tooltips="1"
      connect="1"
      arrows="1"
      fold="1"
      page="1"
      pageScale="1"
      pageWidth="1"
      pageHeight="1"
      math="0"
      shadow="0"
      >
      <root>
        <mxCell
          id="page"
          />
        <mxCell
          id="root"
          parent="page"
          />
        <mxCell
          style="align=center;strokeColor=none;verticalAlign=top;aspect=fixed"
          id="react_iac_dinghytoplevelfolderstructure"
          parent="root"
          value="Dinghy Top Level Folder Structure"
          vertex="1"
          >
          <mxGeometry
            as="geometry"
            width="300"
            height="300"
            x="0"
            y="0"
            />
          </mxCell>
        <mxCell
          style="shape=mxgraph.aws4.folder;fillColor=#232F3D;verticalLabelPosition=middle;verticalAlign=middle;align=center;aspect=fixed;sketch=0;outlineConnect=0;fontColor=#232F3E;gradientColor=none;strokeColor=none;dashed=0;fontSize=12;fontStyle=0;pointerEvents=1;html=1;labelPosition=center"
          id="folder_core"
          parent="react_iac_dinghytoplevelfolderstructure"
          value="core"
          vertex="1"
          >
          <mxGeometry
            as="geometry"
            width="60"
            height="60"
            x="120"
            y="30"
            />
          </mxCell>
        <mxCell
          style="align=center;spacingLeft=5;spacingRight=5;spacingBottom=5;verticalAlign=top;aspect=fixed;noLabel=1;opacity=0"
          id="second"
          parent="react_iac_dinghytoplevelfolderstructure"
          value="Row"
          vertex="1"
          >
          <mxGeometry
            as="geometry"
            width="240"
            height="60"
            x="30"
            y="120"
            />
          </mxCell>
        <mxCell
          style="shape=mxgraph.aws4.folder;fillColor=#232F3D;verticalLabelPosition=middle;verticalAlign=middle;align=center;aspect=fixed;sketch=0;outlineConnect=0;fontColor=#232F3E;gradientColor=none;strokeColor=none;dashed=0;fontSize=12;fontStyle=0;pointerEvents=1;html=1;labelPosition=center"
          id="folder_engine"
          parent="second"
          value="engine"
          vertex="1"
          >
          <mxGeometry
            as="geometry"
            width="60"
            height="60"
            x="0"
            y="0"
            />
          </mxCell>
        <mxCell
          style="shape=mxgraph.aws4.folder;fillColor=#232F3D;verticalLabelPosition=middle;verticalAlign=middle;align=center;aspect=fixed;sketch=0;outlineConnect=0;fontColor=#232F3E;gradientColor=none;strokeColor=none;dashed=0;fontSize=12;fontStyle=0;pointerEvents=1;html=1;labelPosition=center"
          id="folder_docker"
          parent="second"
          value="docker"
          vertex="1"
          >
          <mxGeometry
            as="geometry"
            width="60"
            height="60"
            x="90"
            y="0"
            />
          </mxCell>
        <mxCell
          style="shape=mxgraph.aws4.folder;fillColor=#232F3D;verticalLabelPosition=middle;verticalAlign=middle;align=center;aspect=fixed;sketch=0;outlineConnect=0;fontColor=#232F3E;gradientColor=none;strokeColor=none;dashed=0;fontSize=12;fontStyle=0;pointerEvents=1;html=1;labelPosition=center"
          id="folder_examples"
          parent="second"
          value="examples"
          vertex="1"
          >
          <mxGeometry
            as="geometry"
            width="60"
            height="60"
            x="180"
            y="0"
            />
          </mxCell>
        <mxCell
          style="align=center;spacingLeft=5;spacingRight=5;spacingBottom=5;verticalAlign=top;aspect=fixed;noLabel=1;opacity=0"
          id="third"
          parent="react_iac_dinghytoplevelfolderstructure"
          value="Row"
          vertex="1"
          >
          <mxGeometry
            as="geometry"
            width="240"
            height="60"
            x="30"
            y="210"
            />
          </mxCell>
        <mxCell
          style="shape=mxgraph.aws4.folder;fillColor=#232F3D;verticalLabelPosition=middle;verticalAlign=middle;align=center;aspect=fixed;sketch=0;outlineConnect=0;fontColor=#232F3E;gradientColor=none;strokeColor=none;dashed=0;fontSize=12;fontStyle=0;pointerEvents=1;html=1;labelPosition=center"
          id="folder_cli"
          parent="third"
          value="cli"
          vertex="1"
          >
          <mxGeometry
            as="geometry"
            width="60"
            height="60"
            x="0"
            y="0"
            />
          </mxCell>
        <mxCell
          style="shape=mxgraph.aws4.folder;fillColor=#232F3D;verticalLabelPosition=middle;verticalAlign=middle;align=center;aspect=fixed;sketch=0;outlineConnect=0;fontColor=#232F3E;gradientColor=none;strokeColor=none;dashed=0;fontSize=12;fontStyle=0;pointerEvents=1;html=1;labelPosition=center"
          id="folder_tasks"
          parent="third"
          value="tasks"
          vertex="1"
          >
          <mxGeometry
            as="geometry"
            width="60"
            height="60"
            x="90"
            y="0"
            />
          </mxCell>
        <mxCell
          style="shape=mxgraph.aws4.folder;fillColor=#232F3D;verticalLabelPosition=middle;verticalAlign=middle;align=center;aspect=fixed;sketch=0;outlineConnect=0;fontColor=#232F3E;gradientColor=none;strokeColor=none;dashed=0;fontSize=12;fontStyle=0;pointerEvents=1;html=1;labelPosition=center"
          id="folder_github"
          parent="third"
          value=".github"
          vertex="1"
          >
          <mxGeometry
            as="geometry"
            width="60"
            height="60"
            x="180"
            y="0"
            />
          </mxCell>
        <mxCell
          id="dependency"
          source="folder_engine"
          target="folder_core"
          parent="root"
          edge="1"
          style="rounded=1;orthogonalLoop=1;jettySize=auto;html=1;edgeStyle=orthogonalEdgeStyle"
          >
          <mxGeometry
            relative="1"
            as="geometry"
            >
            <Array
              as="points"
              >
              <mxPoint
                x="60"
                y="105"
                />
              <mxPoint
                x="145"
                y="105"
                />
              </Array>
            </mxGeometry>
          </mxCell>
        <mxCell
          id="dependency_2"
          source="folder_examples"
          target="folder_core"
          parent="root"
          edge="1"
          style="rounded=1;orthogonalLoop=1;jettySize=auto;html=1;edgeStyle=orthogonalEdgeStyle"
          >
          <mxGeometry
            relative="1"
            as="geometry"
            >
            <Array
              as="points"
              >
              <mxPoint
                x="240"
                y="105"
                />
              <mxPoint
                x="155"
                y="105"
                />
              </Array>
            </mxGeometry>
          </mxCell>
        <mxCell
          id="dependency_3"
          source="folder_cli"
          target="folder_engine"
          parent="root"
          edge="1"
          style="rounded=1;orthogonalLoop=1;jettySize=auto;html=1;edgeStyle=orthogonalEdgeStyle"
          >
          <mxGeometry
            relative="1"
            as="geometry"
            >
            <Array
              as="points"
              >
              <mxPoint
                x="60"
                y="195"
                />
              <mxPoint
                x="60"
                y="195"
                />
              </Array>
            </mxGeometry>
          </mxCell>
        <mxCell
          id="dependency_4"
          source="folder_tasks"
          target="folder_cli"
          parent="root"
          edge="1"
          style="rounded=1;orthogonalLoop=1;jettySize=auto;html=1;edgeStyle=orthogonalEdgeStyle"
          >
          <mxGeometry
            relative="1"
            as="geometry"
            >
            <Array
              as="points"
              >
              <mxPoint
                x="105"
                y="240"
                />
              <mxPoint
                x="105"
                y="240"
                />
              </Array>
            </mxGeometry>
          </mxCell>
        <mxCell
          id="dependency_5"
          source="folder_tasks"
          target="folder_docker"
          parent="root"
          edge="1"
          style="rounded=1;orthogonalLoop=1;jettySize=auto;html=1;edgeStyle=orthogonalEdgeStyle"
          >
          <mxGeometry
            relative="1"
            as="geometry"
            >
            <Array
              as="points"
              >
              <mxPoint
                x="150"
                y="195"
                />
              <mxPoint
                x="150"
                y="195"
                />
              </Array>
            </mxGeometry>
          </mxCell>
        <mxCell
          id="dependency_6"
          source="folder_github"
          target="folder_tasks"
          parent="root"
          edge="1"
          style="rounded=1;orthogonalLoop=1;jettySize=auto;html=1;edgeStyle=orthogonalEdgeStyle"
          >
          <mxGeometry
            relative="1"
            as="geometry"
            >
            <Array
              as="points"
              >
              <mxPoint
                x="195"
                y="240"
                />
              <mxPoint
                x="195"
                y="240"
                />
              </Array>
            </mxGeometry>
          </mxCell>
        </root>
      </mxGraphModel>
    </diagram>
  </mxfile>
